<svg viewBox="0 0 1176.606 873.979" xmlns="http://www.w3.org/2000/svg"><path d="M1084.003 212.449c-133.54-185.83-415.64-261.21-693.08-180.02-146.67 42.921-288.09 128.92-358.18 295.44-125.28 297.67 137.76 392.74 309.77 423.04 83.172 14.651 161.51 39.263 233.09 72.771 128.78 60.284 356.74 113.7 528.63-137.41 124.59-182.01 68.722-350.04-20.23-473.82z" fill="#f2f2f2"/><path d="M309.733 249.219a34.385 34.385 0 00-2.248-8.605 3.895 3.895 0 00-1.98-2.438 4.08 4.08 0 00-1.964-.022l-10.087 1.543a3.867 3.867 0 00-2.302.894c-1.314 1.382-.02 3.607-.06 5.513-.045 2.144-1.95 3.884-4.015 4.46a15.177 15.177 0 01-6.38-.08l-14.105-2.192a23.256 23.256 0 0010.671-7.12c1.856-2.2 2.844-6.305.161-7.346a6.585 6.585 0 00-2.45-.197c-6.39.05-11.419-5.286-17.402-7.533a19.241 19.241 0 00-21.655 6.455l7.514.363a3.335 3.335 0 012.002.534c1.646 1.353-.4 3.951-.169 6.07.301 2.752 3.956 3.34 6.711 3.618s6.25 2.517 4.925 4.948c-13.847 4.77-27.937-9.323-42.48-7.588-3.68.439-7.155 1.885-10.748 2.794-21.951 5.554-44.644-9.265-67.068-6.126a85.163 85.163 0 00-14.64 3.86c-3.052 1.003-6.236 2.086-8.453 4.41s-3.062 6.298-.96 8.728a49.126 49.126 0 01-17.217-1.636 9.645 9.645 0 014.959 8.5 102.15 102.15 0 00-26.167 7.979 44.073 44.073 0 005.416 7.215l-11.445 7.353c3.867.974 5.866 6.247 3.617 9.54 4.01-1.784 6.494-6.398 10.782-7.334 2.81-.613 5.667.536 8.332 1.616s5.593 2.126 8.351 1.316 4.793-4.387 3.04-6.666a142.72 142.72 0 0136.254-5.664 4.547 4.547 0 012.745.521c1.598 1.11 1.178 3.504 1.092 5.448s1.428 4.497 3.165 3.621c-2.043 1.772-.296 5.108 1.664 6.97s4.323 4.435 3.123 6.859c-.313.633-.844 1.139-1.146 1.777-.89 1.884.523 4.08 2.19 5.332s3.706 2.126 4.863 3.858.632 4.766-1.437 5.008l-5.883-7.469a15.314 15.314 0 00-3.973 7.53c6.237 5.1 7.176 15.478 1.953 21.613-2.668 3.135-6.463 5.04-9.776 7.486s-6.377 5.928-6.368 10.045c.014 7.113-.567 13.721 2.098 20.316a312.97 312.97 0 0016.99 35.447c1.681 3.006 3.853 6.301 7.258 6.819q-6.455-15.714-11.62-31.917c2.243.009 4.835.187 6.15 2.004 1.09 1.505.856 3.551 1.194 5.378a16.659 16.659 0 002.124 4.994l20.55 36.605c1.704 3.035 3.658 6.292 6.914 7.52 2.081.787 4.49.639 6.405 1.77 1.502.886 2.514 2.46 4.045 3.295 4.328 2.362 10.349-2.167 14.394.652 1.156.807 1.892 2.087 2.958 3.01 3.736 3.236 9.865 1.071 14.18 3.485 2.779 1.556 4.22 4.667 5.702 7.486 3.714 7.062 9.723 13.981 17.683 14.543 2.5.177 5.054-.297 7.498.259s4.85 2.689 4.457 5.164c-.672 4.244 1.425 8.891.862 13.151-1.026 7.76-12.032 11.17-12.978 18.94-.207 1.7.117 3.456-.288 5.122-.497 2.04-2.03 3.702-2.574 5.73-1.032 3.845 1.722 7.67 4.747 10.257s6.635 4.816 8.29 8.436c1.748 3.827.889 8.289 1.457 12.457 1.242 9.1 9.102 15.847 17.191 20.197 2.465 1.326 5.111 2.609 6.707 4.908 2.082 3 1.874 6.957 2.57 10.543 1.702 8.782 9.095 16.017 9.305 24.96.149 6.356-3.384 12.122-5.495 18.12a42.257 42.257 0 003.45 35.046c1.58 2.666 3.468 5.18 4.585 8.07 1.993 5.157 1.346 11.02 3.184 16.235 2.43 6.894 9.106 12.589 8.467 19.872 3.03 6.294 9.723 9.386 16.454 11.26l12.062 3.357c2.31.643 4.722 1.291 7.074.826s4.596-2.419 4.535-4.815c-5.914-1.334-12.019-2.753-16.895-6.357s-8.215-10.023-6.365-15.797c.857-2.677 2.682-5.77.947-7.982-.993-1.266-2.81-1.597-3.93-2.753-1.748-1.803-1.147-4.831.11-7.005s3.072-4.116 3.578-6.575a6.86 6.86 0 00-3.215-7.138 17.054 17.054 0 005.97-3.83c1.57-1.794 2.295-4.558 1.06-6.596 3.667.465 7.997.693 10.405-2.113 1.922-2.24 1.79-5.59 1.03-8.442s-2.043-5.624-2.083-8.575a156.27 156.27 0 0025.353-.86 16.439 16.439 0 00-7.708-9.654c3.81-.644 7.282-5.206 8.486-8.879s.897-7.673.153-11.465a6.152 6.152 0 01-.114-3.004c.429-1.367 1.772-2.202 3.015-2.915l18.914-10.863a11.017 11.017 0 003.025-2.233c1.981-2.328 1.688-5.842.673-8.725s-2.64-5.596-3.03-8.628c-1.17-9.067 8.537-15.574 11.812-24.109 1.286-3.35 1.548-6.99 1.797-10.57.267-3.844.287-8.31-2.665-10.787-2.83-2.374-7.25-1.845-10.211-4.053-2.715-2.026-3.651-5.959-6.617-7.595-2.693-1.485-6.07-.54-9.064-1.239-5.274-1.23-8.593-7.308-13.978-7.87-3.04-.318-6.478 1.167-8.969-.603-2.195-1.559-2.283-4.693-2.7-7.353a20.536 20.536 0 00-16.575-16.628c-3.134-.502-6.544-.312-9.21-2.033-2.698-1.744-3.936-5.008-6.056-7.423-3.417-3.891-8.798-5.274-13.84-6.459l-20.506-4.82c-3.64-.856-8.332-1.31-10.286 1.879a14.738 14.738 0 00-1.217 3.826 11.85 11.85 0 01-11.144 8.389 13.179 13.179 0 00-7.771-6.014c-2.08-.58-4.305-.644-6.288-1.496a8.833 8.833 0 01-3.833-12.253 10.995 10.995 0 00-1.879-13.225c-3.487-3.13-8.531-3.887-13.207-3.574-1.224-2.672.823-5.687 3.03-7.629s4.886-3.85 5.366-6.75c.756-4.562-5.064-8.027-9.483-6.667s-7.24 5.653-9.104 9.884c-1.07 2.427-1.98 4.984-3.667 7.03s-4.404 3.514-6.975 2.857c-3.639-.93-5.044-5.254-5.85-8.922-1.08-4.922-2.166-9.912-1.94-14.946s1.923-10.203 5.635-13.61c6.05-5.553 15.328-5.009 23.491-4.123-1.928-2.173-1.452-5.835.612-7.88a8.96 8.96 0 018.12-1.995 11.191 11.191 0 016.292 3.761c2.32 2.828 2.98 6.647 4.733 9.857s5.696 5.949 8.923 4.227c2.788-1.488 3.23-5.353 2.536-8.436s-2.167-6.08-1.916-9.229c.48-6.01 6.71-9.627 12.206-12.102s11.792-5.804 12.663-11.769a10.73 10.73 0 01.653-3.42 6.71 6.71 0 012.461-2.315c16.044-10.603 32.355-21.335 50.692-27.129.954-.301 1.066.034 2.038-.203 1.361-.786.46-2.962-.845-3.838s-3.048-1.549-3.38-3.085c-.243-1.13.423-2.238.596-3.38.424-2.808-2.934-5.4-5.541-4.277-1.473-1.95 1.441-4.218 3.798-4.866a103.15 103.15 0 0121.67-3.54 3.903 3.903 0 012.466.419c1.23.853 1.074 2.808.201 4.025s-2.23 1.982-3.316 3.011a9.053 9.053 0 00-2.348 9.105c3.826 1.947 7.985 3.95 12.223 3.264s7.998-5.446 6.006-9.249c-1.854-3.54-7.426-4.34-8.384-8.22-1.122-4.544 5.31-8.585 3.861-13.035-.634-1.95-2.577-3.097-4.068-4.504a12.221 12.221 0 01-2.674-13.552 15.419 15.419 0 01-13.523-4.232c-3.235-3.264-5.815-8.413-10.408-8.267-4.215.134-7.845 5.05-11.786 3.55-.97-.368-1.992-1.12-2.931-.68a2.422 2.422 0 00-1.094 1.815c-1.001 4.789.722 10.244-1.888 14.382-2.84 4.503-9.409 5.127-12.852 9.188-1.87 2.204-2.593 5.174-4.311 7.497s-5.364 3.802-7.425 1.777a10.235 10.235 0 00-2.78-12.445 27.309 27.309 0 00-6.142-2.988 36.422 36.422 0 01-6.86-3.823 6.758 6.758 0 01-2.52-2.695 6.141 6.141 0 01.173-4.262 17.426 17.426 0 0113.867-11.494c2.745-.373 5.94-.242 7.756-2.333.961-1.107 1.465-2.78 2.86-3.23a4.22 4.22 0 012.642.326l10.245 3.606a7.19 7.19 0 003.65.604 2.474 2.474 0 002.139-2.6c-.327-1.702-2.945-2.519-2.707-4.235a2.827 2.827 0 01.857-1.441 36.629 36.629 0 0129.051-11.472c1.293 2.124-.752 4.639-2.453 6.452s-3.07 5.052-1.012 6.448a5.643 5.643 0 002.728.614 23.819 23.819 0 017.261 2.202q5.31 2.312 10.417 5.058c-.3-2.245-.588-4.61.263-6.709s3.27-3.745 5.381-2.928c2.036.788 3.08 3.483 5.248 3.73 2.893.33 4.034-3.944 2.826-6.593s-3.6-4.867-3.8-7.771c-.135-1.96.61-4.39-.954-5.577a4.26 4.26 0 00-1.847-.648l-39.084-7.192c-2.321-.427-5.674-.1-5.777 2.258-.058 1.316 1.118 2.618.597 3.828-.556 1.291-2.381 1.173-3.71 1.63-2.064.709-3.099 3.159-2.9 5.33a14.834 14.834 0 002.447 6.008c-2.542-1.063-6.391-1.258-8.933-2.321zM278.543 216.039a12.656 12.656 0 00-13.902 4.164c-.644.847-1.184 2.015-.645 2.932.772 1.316 2.74.796 4.191.326a10.549 10.549 0 016.621-.158c1.363.468 2.582 1.294 3.95 1.744a3.978 3.978 0 004.056-.592c.939-.958.998-2.447 1-3.789a3.047 3.047 0 00-.777-2.504 3.98 3.98 0 00-1.795-.531 6.184 6.184 0 01-3.62-2.115M292.643 212.119a3.22 3.22 0 00-3.112 4.534 13.05 13.05 0 005.203.34 4.447 4.447 0 003.637-3.335 8.372 8.372 0 01-5.928-1.132M339.923 205.559a59.853 59.853 0 00-13.342 4.532 10.024 10.024 0 016.402 10.068 5.243 5.243 0 00.061 2.49c.49 1.188 1.91 1.633 3.158 1.938a20.823 20.823 0 006.927.884 7.056 7.056 0 005.734-3.503 24.972 24.972 0 011.193-2.819c2.992-4.557 11.88.953 15.094-3.451 1.131-1.552 1.028-3.887 2.503-5.117a5.624 5.624 0 012.574-.982 180.73 180.73 0 0119.548-2.784c3.109-.27 7.161-1.387 7.187-4.508a54.149 54.149 0 00-34.54 4.647c-3.851 1.929-8.944 5.985-12.653 3.429-1.388-.958-1.32-3.536-3.23-4.612-1.955-1.1-4.542-.653-6.616-.212z" fill="#3f3d56"/><path d="M378.223 212.729l5.497 1.056a7.124 7.124 0 00-7.413 7.72c5.148 1.72 10.761.047 16.184.275s11.733 4.103 10.807 9.45c-.28 1.618-1.214 3.234-.728 4.802.34 1.098 1.31 1.878 1.856 2.89 1.14 2.109.229 4.776-1.21 6.693s-3.374 3.446-4.637 5.483c-3.142 5.067-1.357 11.617.515 17.277a15.231 15.231 0 002.929 5.849c2.772 2.948 7.291 3.204 11.338 3.264 2.945.043 6.32-.103 8.182-2.385 2.432-2.98.731-7.628 2.332-11.125 1.454-3.176 5.159-4.538 8.515-5.505 6.15-1.77 12.416-3.275 18.23-5.949 7.218-3.32 13.964-8.494 21.898-8.922 2.226-.12 4.507.143 6.652-.467s4.18-2.464 4.018-4.687c-.139-1.9-1.746-3.294-3.001-4.726s-2.242-3.634-1.088-5.15l20.797-3.884c-1.474-4.017-2.623-9.308.765-11.924 1.222-.943 2.858-1.32 3.899-2.461 1.774-1.944.882-5.293-1.166-6.946s-4.815-2.038-7.438-2.255c-9.119-.758-18.29-.257-27.426.243l-53.58 2.937c-3.595.197-7.746-.104-11.044 1.123-2.791 1.038-4.776 2.945-7.969 3.614-5.894 1.237-12.38.4-17.714 3.71zM476.703 256.179a2.212 2.212 0 00-1.6.363 2.02 2.02 0 00-.521 1.234 8.149 8.149 0 001.184 5.832 5.711 5.711 0 005.228 2.507c2.475-.316 4.3-2.428 6.575-3.458 3.507-1.587 18.403-4.06 8.099-9.628-3.551-1.918-5.846-.225-8.644 1.039a19.669 19.669 0 01-10.321 2.11zM566.953 209.579a5.883 5.883 0 00-2.862 2.492 2.514 2.514 0 00.942 3.335 3.752 3.752 0 001.404.222l4.892.146c2.079.062 4.675.505 5.233 2.508.415 1.487-.513 3.398.606 4.46a3.155 3.155 0 001.665.65 11.341 11.341 0 004.929.159c3.56-.955 1.69-3.127 2.81-5.062 1.716-2.96 1.419-1.168 4.441-2.864 2.232-1.253 5.117-3.526 3.253-6.719-3.24-5.552-22.533-1.712-27.313.673zM663.513 206.789l-2.84.38c-6.407.854-12.849 1.717-19.019 3.64a31.652 31.652 0 008.33 2.044 25.585 25.585 0 014.664.663c2.726.811 5.471 2.906 8.104 1.833 1.633-.665 2.165-2.365 3.518-3.266.933-.622 4.475-1.628 4.87-2.256 3.201-5.076-5.167-3.366-7.627-3.038zM675.993 219.699a53.277 53.277 0 00-10.483 7.677c-1.335 1.255-2.698 2.815-2.577 4.643.161 2.43 2.749 3.839 4.99 4.788l9.082 3.845c1.102-1.553.093-3.696-1.045-5.222s-2.492-3.292-1.989-5.128c.574-2.095 3.13-2.81 5.272-3.17 3.49-.589 12.907-.541 11.776-6.167-1.334-6.629-11.521-3.225-15.025-1.266zM674.163 594.829c-.865 2.503-.947 5.451.549 7.637 1.678 2.452 5.036 3.366 7.942 2.744a14.307 14.307 0 007.373-4.741 25.392 25.392 0 004.242-6.504 50.767 50.767 0 003.143-11.502l2.82-14.804c.63-3.309.605-13.452-5.476-10.147-1.66.903-5.507 8.031-7.248 10.053-3.138 3.643-3.553 7.178-5.205 11.592-2.069 5.528-6.227 10.136-8.14 15.673zM995.303 670.589a44.332 44.332 0 01-5.779-2.75 48.707 48.707 0 00-2.929 15.964l13.616-7.705c2.048-1.159 4.37-2.77 4.326-5.122a1.62 1.62 0 00-.753-1.474 1.836 1.836 0 00-.954-.112c-2.02.169-3.86 1.162-5.765 1.853s-4.132 1.056-5.88.03M1067.203 675.159a29.472 29.472 0 00-4.366 1.567c-3.125 1.59-5.25 4.61-8.062 6.703-2.691 2.004-5.93 3.104-9.11 4.174-.935.827-.505 2.492.51 3.218a6.315 6.315 0 003.596.809c3.303.073 6.784.104 9.677-1.491a30.518 30.518 0 004.556-3.616c3.383-2.823 7.446-4.685 11.467-6.485a13.162 13.162 0 003.997-2.39c2.527-2.49 2.705-6.33-.939-7.178-2.944-.685-8.523 3.782-11.326 4.689zM1098.903 654.429a11.359 11.359 0 00-3.475-9.307c-.037 3.428-.142 7.08-2.07 9.914-1.373 2.02-3.526 3.384-5.031 5.307s-2.173 4.973-.408 6.661a6.615 6.615 0 003.92 1.35c3.514.414 7.581.645 10.045-1.894 1.345-1.386 2-3.438 3.64-4.456a4.428 4.428 0 001.597-1.143c.678-1.077-.399-2.496-1.61-2.884s-2.547-.206-3.765-.574-2.334-1.738-1.71-2.846M1042.503 528.759a15.795 15.795 0 01-5.636.332c-3.128-.575-5.563-2.932-8.088-4.866a35.677 35.677 0 00-20.846-7.283c-6.863-.13-13.79 1.73-20.53.433.441 2.449 2.537 4.286 4.773 5.378s4.704 1.641 6.951 2.71a16.597 16.597 0 018.04 8.364c.723 1.69 1.179 3.528 2.275 5.003 2.24 3.015 6.487 3.677 10.236 3.43 4.887-.321 9.99-1.727 14.537.094 3.478 1.393 5.967 4.437 8.87 6.804s6.995 4.123 10.33 2.415a17.075 17.075 0 01-11.814-16.43c3.27.301 12.69.185 12.183-5.372-.43-4.71-8.472-1.52-11.28-1.012zM999.703 567.079c.58-3.185 3.757-5.997 2.767-9.08-.684-2.131-3.155-3.184-5.394-3.236s-4.437.614-6.675.676a32.53 32.53 0 00-4.37.063c-4.443.73-7.181 5.386-11.367 7.042-2.546 1.006-5.406.814-8.054 1.51-6.01 1.58-9.812 7.259-14.014 11.838a50.011 50.011 0 01-25.384 14.804c-3.417.791-7.09 1.297-9.806 3.517-3.597 2.939-4.482 7.977-5.282 12.552a207.33 207.33 0 01-10.094 37.05l14.27 1.823c2.714.346 5.525.685 8.14-.119a23.628 23.628 0 005.353-2.851 53.442 53.442 0 0120.879-7.537c3.737-.513 7.655-.607 11.162.782s6.515 4.54 6.809 8.3a8.767 8.767 0 018.762 2.13 15.231 15.231 0 014.183 8.352c.376 1.952.752 4.292 2.564 5.11 1.478.669 3.174-.05 4.79-.18 5.487-.44 10.04 5.958 15.432 4.857 5.784-1.182 7.204-9.844 12.846-11.578 3.24-.997 7.786.215 9.338-2.8 1.368-2.656-1.361-5.722-1.08-8.697.347-3.664 4.668-5.218 7.999-6.781 11.484-5.389 16.934-20.845 11.369-32.245-3.297-6.755-9.785-12.071-10.983-19.491-.922-5.71 1.328-12.366-2.311-16.86-1.852-2.285-4.987-3.547-6.089-6.275-.693-1.716-.414-3.664-.788-5.478s-1.955-3.711-3.746-3.24c-5.2 1.364-6.858 17.424-9.642 21.326-4.23 5.932-12.917 2.025-11.585-5.283zM903.623 534.829c-1.777-.498-3.717-.989-5.419-.277s-2.696 3.211-1.33 4.451c10.688-.416 21.442-.83 32.04.622 12.21 1.672 24.294 5.815 36.558 4.596a186.05 186.05 0 00-21.326-4.948l-12.006-2.294a92.83 92.83 0 00-9.75-1.506c-6.849-.566-12.032 1.244-18.767-.644zM914.323 497.599c-.887-.074-1.986-.138-2.445.625-.439.729.063 1.692-.173 2.51-.322 1.116-1.784 1.401-2.937 1.25s-2.398-.517-3.419.039a2.898 2.898 0 00-1.12 3.292 8.475 8.475 0 001.976 3.15 32.185 32.185 0 005.128 5.143c3.673 2.712 8.65 4.019 10.964 7.955a5.278 5.278 0 001.464 1.97c1.11.704 2.56.17 3.755-.377l4.192-1.916a4.762 4.762 0 001.96-1.332c.958-1.3.37-3.148-.434-4.547s-1.833-2.85-1.66-4.454c.307-2.862 3.986-3.956 5.5-6.405 1.524-2.468.531-5.648.707-8.544.206-3.387 2.334-7.792-1.09-10.323-2.91-2.15-5.691-.163-7.78 2.21-4.406 5.008-6.49 10.43-14.588 9.754zM939.773 446.999c1.431 2.74 4.415 4.375 5.975 7.044 1.692 2.893 1.5 6.63 3.334 9.434 1.883 2.876 5.672 4.403 6.728 7.675 1.153 3.572-1.463 7.914.622 11.034a4.632 4.632 0 006.795.624 4.984 4.984 0 00-.206-6.953c-1.234-1.126-3.007-1.612-4.038-2.927a6.141 6.141 0 01-1.045-2.546 16.669 16.669 0 01.262-7.989 3.555 3.555 0 00.2-2.09c-.463-1.348-2.29-1.444-3.571-2.07-2.911-1.42-2.84-5.53-2.332-8.729-.339 2.13-7.926-1.492-8.72-2.699-1.579-2.397-.72-7.02-1.032-9.669-3.408 1.642-4.722 6.51-2.972 9.86zM863.333 489.159c-1.4-1.568-3.51-3.208-5.387-2.262-1.433.721-1.827 2.703-1.265 4.205a9.257 9.257 0 003.055 3.642c3.912 3.227 8.125 6.14 11.539 9.89 6.108 6.713 9.344 15.77 15.987 21.954a8.967 8.967 0 005.034 2.725c1.935.18 4.108-1.06 4.33-2.99.184-1.59-.925-3.014-2.008-4.193-2.58-2.807-5.406-5.39-7.842-8.324a6.994 6.994 0 01-2.005-4.186c-.012-1.58 1.428-3.232 2.958-2.841-1.86-.476-3.24-3.576-5.972-4.158-2.282-.487-2.835.926-5.55-.24-5.182-2.221-9.246-9.16-12.874-13.222zM985.063 336.509a42.899 42.899 0 01-4.377-1.564c-3.846-1.154-8.936 1.673-8.423 5.656.34 2.647 2.804 4.431 4.164 6.727 2.017 3.405 1.48 7.723.42 11.535a9.017 9.017 0 01-1.456 3.282 11.116 11.116 0 01-3.447 2.48 46.103 46.103 0 00-13.49 11.46 3.303 3.303 0 00-.815 1.535c-.183 1.345 1.169 2.325 1.933 3.447 1.698 2.491.47 5.844.638 8.855a2.504 2.504 0 001.055 2.196c1.024.52 2.236-.363 2.79-1.368 1.841-3.334.455-8.687 3.908-10.295.653-.304 1.445-.432 1.88-1.006.692-.91.025-2.258.375-3.346.526-1.633 2.76-1.707 4.475-1.634a25.398 25.398 0 008.724-1.162 5.807 5.807 0 002.888-1.672c1.032-1.288.94-3.12.735-4.758a64.492 64.492 0 00-7.62-23.25c3.033.388 6.333.723 8.95-.857 1.466-.885 3.224-3.533 2.497-5.334-1.15-2.85-3.226-.451-5.804-.927zM596.213 381.419c.363 1.947.72 3.997.082 5.872s-2.645 3.44-4.54 2.866c-1.471-.446-2.321-1.924-3.365-3.052-5.808-6.27-18.912-2.64-22.5-10.397-1.465-3.166-.47-6.959-1.468-10.3a9.169 9.169 0 00-9.286-6.309 19.08 19.08 0 00-5.343 1.595 134.73 134.73 0 01-35.4 8.855 29.087 29.087 0 00-6.803 1.237c-4.988 1.809-8.396 6.433-10.821 11.151s-4.216 9.827-7.468 14.02c-3.417 4.405-8.206 7.49-12.673 10.827a12.93 12.93 0 00-4.18 4.382c-.969 1.988-.914 4.3-.839 6.51l.913 26.845c.117 3.453.265 7.029 1.81 10.119 1.93 3.858 5.742 6.385 8.387 9.794a19.183 19.183 0 013.98 12.25c-.057 1.778-.234 3.88 1.15 4.996a5.062 5.062 0 002.83.814l36.313 2.972c6.387.522 13.466 1.382 17.637 6.249 1.968 2.296 3.549 5.6 6.564 5.846 1.293.105 2.551-.426 3.844-.528 3.263-.258 6.13 2.218 7.939 4.946a21.943 21.943 0 013.525 14.08c-.297 3.112-1.262 6.137-1.47 9.256-.791 11.868 9.27 22.18 9.464 34.071.115 6.995-3.206 13.531-6.443 19.733 5.225 7.916.946 18.457 3.027 27.711 1.973 8.78 9.294 15.653 11.118 24.465.835 4.034.883 8.998 4.44 11.076a10.122 10.122 0 005.025 1.006 66.242 66.242 0 0030.165-6.867c4.399-2.183 8.957-5.442 9.725-10.291.62-3.911-1.364-8.286.655-11.693 2.379-4.016 8.473-3.697 11.974-6.784 5.679-5.009 1.25-14.56 3.551-21.773 2.068-6.484 9.188-9.93 12.716-15.748a27.986 27.986 0 002.955-8.01 114.24 114.24 0 003.007-20.425 122.44 122.44 0 01.924-12.511c3.805-23.638 27.173-39.466 34.76-62.174.725-2.169 1.065-5.057-.864-6.284a5.525 5.525 0 00-3.675-.385l-16.739 2.11c-2.079.262-4.283.507-6.192-.356s-3.278-3.28-2.265-5.114c2.843-5.15-3.005-11.657-5.603-16.935a249.89 249.89 0 00-24.885-40.357 4.102 4.102 0 01-1.091-2.368l4.75.158c-1.603-5.755-4.25-12.051-9.84-14.156-3.15-1.186-6.639-.776-10-.593-9.627.526-19.948-.927-29.477-2.4z" fill="#3f3d56"/><path d="M625.703 251.749c2.52 2.675 5.342 5.512 8.987 5.978 6.438.824 11.067-5.834 14.014-11.617a5.676 5.676 0 005.923 5.251 11.693 11.693 0 004.455-1.741 87.765 87.765 0 0141.58-10.749 4.49 4.49 0 013.428-4.936c2.956-.586 5.618 1.97 7.044 4.624s2.314 5.73 4.58 7.717 6.65 1.9 7.544-.977c.86-2.762-2.018-5.117-4.409-6.746s-4.91-4.642-3.3-7.045c12.213-2.704 24.502-5.418 37-5.955a15.494 15.494 0 006.228-1.073c1.906-.935 3.42-3.058 2.908-5.118a14.104 14.104 0 01-14.718-5.552c17.341-1.43 35.785-2.65 51.153 5.51 1.844 3.958-7.555 7.252-5.04 10.823.802 1.139 2.41 1.272 3.802 1.298 10.679.199 21.42.393 31.98-1.22 3.859-.588 7.756-1.42 11.63-.942 6.453.795 11.972 5.1 18.32 6.505 2.584.57 5.48.59 7.659-.913s3.114-4.924 1.33-6.878c5.976-5.858 15.896-4.406 23.782-1.602s15.355 7.328 23.701 7.953c5.985.448 12.053-1.161 17.966-.138 3.716.643 7.175 2.296 10.807 3.312 6.87 1.92 14.136 1.515 21.268 1.608a149.02 149.02 0 0153.106 10.553 15.789 15.789 0 015.904 3.488c1.573 1.684 2.376 4.303 1.318 6.351l-17.473-2.553c1.647 3.24 5.906 3.793 9.364 4.911s7.045 4.938 4.967 7.92c-3.748-1.194-7.144 2.553-9.037 6s-4.2 7.577-8.127 7.787c-3.517.188-7.77-2.807-10.062-.133a68.629 68.629 0 018.085 12.927c2.265 4.718 3.878 10.663.817 14.908a3.864 3.864 0 01-2.066 1.602c-2.5.633-4.124-2.426-5.917-4.28-2.259-2.335-5.676-2.997-8.735-4.092s-6.282-3.25-6.521-6.491c-.15-2.017.915-3.89 1.7-5.755a22.17 22.17 0 001.684-9.943c-.172-2.735-.939-5.58-2.903-7.492s-5.356-2.517-7.465-.767c-.984.817-1.773 2.123-3.05 2.172-2.258.087-3.992-3.85-5.808-2.506a6.172 6.172 0 01-.839 4.128c-5.42 4.714-13.748 2.72-20.736 4.385a38.921 38.921 0 00-9.46 4.132 6.087 6.087 0 00-2.705 2.27c-.872 1.695.09 3.866 1.627 4.993a12.917 12.917 0 005.365 1.831c8.52 1.613 17.163 4.111 23.889 9.583s11.137 14.518 9.008 22.924l-16.8-16.054q.957 10.111 1.086 20.277a9.116 9.116 0 01-.533 3.9c-1.197 2.646-4.444 3.536-7.288 4.12a5.71 5.71 0 00-4.383 7.315c1.01 3.294 3.53 5.863 5.838 8.422s4.578 5.468 4.88 8.9-2.288 7.302-5.725 7.064c-2.606-.181-4.54-2.514-5.65-4.878s-1.774-4.997-3.444-7.006c-5.055-6.08-16.409-3.475-20.937-9.956a10.241 10.241 0 00-2.118 9.746c2.107-1.319 4.991-.094 6.574 1.823s2.33 4.373 3.573 6.525c1.677 2.904 4.346 5.48 4.58 8.825a28.845 28.845 0 00.064 3.795c.416 2.027 2.13 3.483 3.318 5.177 2.764 3.943 2.627 9.36.846 13.833s-4.983 8.212-8.154 11.836c-5.537 6.33-11.189 12.623-17.754 17.88-1.873 1.5-3.872 2.975-5.039 5.072s-1.227 5.04.566 6.636c-1.283.064-3.583.695-4.866.76a113.14 113.14 0 01-.293-15.477c-5.063-2.431-10.514 4.079-9.86 9.657s4.687 10.054 7.56 14.88c2.1 3.529 3.66 7.644 2.96 11.69s-4.314 7.78-8.405 7.422c-6.508-.567-9.23-9.91-15.674-10.979a2.633 2.633 0 00-1.696.169c-.957.525-1.123 1.805-1.177 2.895-.263 5.349-.492 10.91 1.597 15.843 3.054 7.214 10.946 13.275 9.29 20.933-8.917-4.146-13.553-14.146-15.66-23.752s-2.455-19.691-6.23-28.772c-2.865 3.672-8.888.636-11.506-3.217-2.482-3.653-4.01-7.878-6.419-11.58s-6.097-7.017-10.509-7.22c-4.625-.214-8.637 2.96-12.165 5.96-2.9 2.466-5.879 5.029-7.575 8.438-2.467 4.96-1.822 10.809-1.94 16.349-.13 5.989-1.398 12.307-5.48 16.691s-11.615 5.911-16.117 1.96c-2.35-2.063-3.488-5.145-4.502-8.103a396.68 396.68 0 01-12.188-43.511c-.756 3.36-3.707 7.692-6.526 5.712a5.844 5.844 0 01-1.504-1.937c-5.258-8.912-14.996-14.258-24.835-17.463s-20.19-4.7-29.92-8.223a75.787 75.787 0 01-15.52-7.731 12.207 12.207 0 00-.747 12.487c2.158 3.821 7.042 6.032 11.223 4.697 2.16-.69 3.985-2.19 6.129-2.931s5.02-.377 5.958 1.688c.897 1.977-.459 4.368.214 6.433 1.025 3.143 5.766 3.385 7.424 6.246 1.234 2.129.218 4.955-1.543 6.673s-4.111 2.659-6.261 3.855c-6.976 3.879-11.937 10.502-18.034 15.654s-14.7 8.914-21.965 5.609c1.732-8.77-8.715-15.21-10.637-23.94-.633-2.873-.305-5.925-1.208-8.726-1.307-4.054-4.905-6.842-7.855-9.914a38.912 38.912 0 01-10.673-28.31c.159-3.609.822-7.276 0-10.792s-3.734-6.921-7.342-6.762c-8.241.364-18.623.977-22.947-6.048-1.543-2.507-2.215-6.18.016-8.1 1.574-1.356 3.897-1.228 5.964-1.025l18.568 1.827c4.343.427 9.038.78 12.764-1.49s5.342-8.298 1.891-10.969c-2.521-1.951-7.039-1.846-7.772-4.949-.61-2.584 2.25-5.516.706-7.676-1.108-1.549-3.599-1.12-5.108.042s-2.604 2.858-4.293 3.737c-2.963 1.542-6.503.075-9.69-.923s-7.462-1.082-9.008 1.879c-1.73 3.311 1.533 7.65-.183 10.968-2.269 4.387-9.952 1.89-13.139 5.663-3.656 4.33 2.488 10.786 1.255 16.318a10.158 10.158 0 01-10.007-.562 9.72 9.72 0 01-4.2-9.051c.305-2.488 1.602-5.028.733-7.38-.703-1.901-2.612-3.033-4.386-4.013l-18.044-9.971c-1.675 3.107.443 6.96 3.092 9.294s5.966 4.093 7.706 7.165a9.404 9.404 0 01-3.538 12.398 2.17 2.17 0 01-1.789.312 2.495 2.495 0 01-1.16-1.56c-3.183-8.148-7.964-16.18-15.606-20.436s-18.623-3.381-23.634 3.788c-1.19 1.703-1.989 3.644-3.026 5.445-5.509 9.565-17.319 14.095-28.354 13.799a5.63 5.63 0 01-3.093-.727c-1.783-1.232-1.703-3.845-1.43-5.995l1.158-9.125c.233-1.832.57-3.857 2.02-5 2.044-1.613 4.993-.596 7.596-.633a9.627 9.627 0 008.738-6.744 10.849 10.849 0 00-3.02-10.789c-1.193-1.12-2.795-2.528-2.165-4.039a3.34 3.34 0 012.342-1.577c4.676-1.358 9.617-1.713 14.215-3.316s9.057-4.88 10.146-9.626c.334-1.454.486-3.216 1.792-3.937a5.374 5.374 0 012.071-.423 10.078 10.078 0 008.644-10.506c2.204-1.54 5.291-.408 7.423 1.23s4.014 3.802 6.608 4.508c4.834 1.315 9.506-2.965 14.516-2.985 2.107-.008 4.288.737 6.27.023 2.01-.724 3.21-2.725 4.751-4.202s4.249-2.38 5.673-.787l-1.213-8.982a17.658 17.658 0 0014.37-2.599l-15.671-5.295a3.407 3.407 0 01-1.466-.783c-1.139-1.227-.007-3.14.92-4.534 2.216-3.336 2.588-8.832-1.057-10.493-2.488-1.134-5.344.227-7.732 1.559l-11.439 6.378c-.363 2.174 2.296 3.406 3.943 4.87a6.611 6.611 0 01-4.31 11.553 8.238 8.238 0 011.47 6.984l-7.696.553a3.334 3.334 0 01-2.496-.487c-.823-.731-.712-2.012-.902-3.096-.46-2.617-3.023-4.451-5.638-4.922s-5.29.133-7.88.728a4.703 4.703 0 01-3.388-.078 3.382 3.382 0 01-1.34-1.692c-1.135-2.752-.074-5.988 1.75-8.342s4.319-4.075 6.56-6.035a38.243 38.243 0 0011.372-17.638c4.236-1.775 8.623-4.187 12.86-5.962a39.35 39.35 0 0121.15-4.098l14.349.274c4.248.081 8.61.185 12.539 1.804s7.38 5.123 7.65 9.363a2.874 2.874 0 01-.92 2.627 3.39 3.39 0 01-1.814.41c-3.961.138-5.65 1.125-9.612 1.265zM511.343 296.709a4.199 4.199 0 001.145-4.223 7.854 7.854 0 00-8.132 1.536 13.71 13.71 0 00-2.179 2.88c-1.885 3.076-3.553 6.75-2.46 10.189a2.894 2.894 0 001.325 1.812 3.482 3.482 0 001.544.242 51.761 51.761 0 006.213-.383c1.266-.155 2.737-.512 3.226-1.69.643-1.548-.913-3.3-.46-4.915a5.37 5.37 0 011.326-1.899 2.51 2.51 0 00.782-2.107c-.183-.757-1.343-1.187-1.76-.529" fill="#3f3d56"/><path d="M522.113 282.749a17.385 17.385 0 00-5.63-.354 2.455 2.455 0 00-1.2.273 2.002 2.002 0 00-.74 1.07 5.32 5.32 0 003.097 6.52 6.655 6.655 0 011.92.771c1.593 1.236.578 3.761.88 5.754.338 2.238 2.504 4.117 2.107 6.345-.313 1.755-2.188 3.145-1.886 4.903.316 1.84 2.652 2.394 4.514 2.541a5.677 5.677 0 003.197-.366 4.952 4.952 0 002.018-2.922 18.729 18.729 0 00.944-7.052 6.687 6.687 0 00-.796-3.113 17.378 17.378 0 00-1.858-2.128c-3.567-4.149.189-10.338-6.567-12.242z" fill="#3f3d56"/><path d="M991.203 607.779s-273.2-156.82-390.82-127.11c0 0-249.27 26.825-278.15 85.84 0 0-79.237-247.61-108.12-255.87" fill="none" opacity=".8" stroke="tomato" stroke-miterlimit="10" stroke-width="2"/><path d="M322.203 566.519c45.809-122.16 458.5-257.52 458.5-257.52-58.602 14.857-180.35 171.68-180.35 171.68s-257.52-187.36-386.28-170.03c0 0 567.04 18.571 777.1 297.14" fill="none" opacity=".8" stroke="tomato" stroke-miterlimit="10" stroke-width="2"/><circle cx="214.07" cy="310.65" r="11.968" fill="tomato"/><circle cx="322.2" cy="566.52" r="11.968" fill="tomato"/><circle cx="780.7" cy="309" r="11.968" fill="tomato"/><circle cx="991.17" cy="607.78" r="11.968" fill="tomato"/><circle cx="600.35" cy="480.68" r="11.968" fill="tomato"/></svg>